<svg width="550" height="189" viewBox="0 0 550 189" fill="none" xmlns="http://www.w3.org/2000/svg">
<path d="M102.219 72.672C97.9313 72.672 94.1873 71.904 90.9873 70.368C87.8513 68.832 85.4193 66.816 83.6913 64.32C81.9633 61.76 80.9393 59.008 80.6193 56.064H82.5393C82.8593 58.304 83.6593 60.544 84.9393 62.784C86.2833 65.024 88.3633 66.944 91.1793 68.544C94.0593 70.144 97.7393 70.944 102.219 70.944C105.803 70.944 108.971 70.272 111.723 68.928C114.475 67.52 116.587 65.664 118.059 63.36C119.531 61.056 120.267 58.496 120.267 55.68C120.267 52.032 119.435 49.152 117.771 47.04C116.107 44.864 114.027 43.264 111.531 42.24C109.099 41.216 105.803 40.16 101.643 39.072C97.2913 37.92 93.8033 36.768 91.1793 35.616C88.5553 34.464 86.3153 32.704 84.4593 30.336C82.6673 27.904 81.7713 24.64 81.7713 20.544C81.7713 17.6 82.5713 14.848 84.1713 12.288C85.8353 9.664 88.1713 7.584 91.1793 6.048C94.2513 4.512 97.7393 3.744 101.643 3.744C105.611 3.744 109.035 4.448 111.915 5.856C114.795 7.264 117.035 9.056 118.635 11.232C120.299 13.344 121.387 15.584 121.899 17.952H119.979C119.531 16.096 118.603 14.208 117.195 12.288C115.787 10.368 113.771 8.768 111.147 7.488C108.523 6.144 105.355 5.472 101.643 5.472C98.3793 5.472 95.3713 6.112 92.6193 7.392C89.9313 8.608 87.7553 10.368 86.0913 12.672C84.4913 14.912 83.6913 17.536 83.6913 20.544C83.6913 24.256 84.5233 27.232 86.1873 29.472C87.9153 31.648 90.0273 33.28 92.5233 34.368C95.0193 35.392 98.3473 36.448 102.507 37.536C106.859 38.688 110.315 39.84 112.875 40.992C115.499 42.08 117.707 43.808 119.499 46.176C121.291 48.48 122.187 51.648 122.187 55.68C122.187 58.496 121.419 61.216 119.883 63.84C118.411 66.464 116.171 68.608 113.163 70.272C110.155 71.872 106.507 72.672 102.219 72.672ZM132.76 46.08C132.76 40.64 133.816 35.936 135.928 31.968C138.04 27.936 141.016 24.864 144.856 22.752C148.696 20.576 153.08 19.488 158.008 19.488C163.96 19.488 168.984 21.056 173.08 24.192C177.24 27.264 180.024 31.2 181.432 36V20.16H183.256V72H181.432V56.16C180.024 60.96 177.24 64.928 173.08 68.064C168.984 71.136 163.96 72.672 158.008 72.672C153.08 72.672 148.696 71.616 144.856 69.504C141.016 67.328 138.04 64.256 135.928 60.288C133.816 56.256 132.76 51.52 132.76 46.08ZM181.432 46.08C181.432 41.152 180.408 36.832 178.36 33.12C176.376 29.344 173.592 26.432 170.008 24.384C166.488 22.272 162.488 21.216 158.008 21.216C153.272 21.216 149.144 22.208 145.624 24.192C142.168 26.176 139.48 29.056 137.56 32.832C135.64 36.544 134.68 40.96 134.68 46.08C134.68 51.2 135.64 55.648 137.56 59.424C139.48 63.136 142.168 65.984 145.624 67.968C149.144 69.952 153.272 70.944 158.008 70.944C162.488 70.944 166.488 69.92 170.008 67.872C173.592 65.76 176.376 62.848 178.36 59.136C180.408 55.36 181.432 51.008 181.432 46.08ZM260.238 19.008C265.998 19.008 270.734 20.896 274.446 24.672C278.158 28.448 280.014 34.144 280.014 41.76V72H278.19V41.568C278.19 34.784 276.59 29.632 273.39 26.112C270.19 22.528 265.806 20.736 260.238 20.736C254.414 20.736 249.71 22.816 246.126 26.976C242.542 31.072 240.75 37.056 240.75 44.928V72H238.926V41.568C238.926 34.784 237.326 29.632 234.126 26.112C230.926 22.528 226.542 20.736 220.974 20.736C215.086 20.736 210.35 22.816 206.766 26.976C203.246 31.072 201.486 37.056 201.486 44.928V72H199.566V20.16H201.486V33.888C202.766 28.896 205.134 25.184 208.59 22.752C212.11 20.256 216.238 19.008 220.974 19.008C225.838 19.008 229.998 20.384 233.454 23.136C236.974 25.824 239.214 29.92 240.174 35.424C241.326 29.92 243.694 25.824 247.278 23.136C250.926 20.384 255.246 19.008 260.238 19.008ZM297.672 36C299.08 31.2 301.832 27.264 305.928 24.192C310.088 21.056 315.144 19.488 321.096 19.488C326.024 19.488 330.408 20.576 334.248 22.752C338.088 24.864 341.064 27.936 343.176 31.968C345.288 35.936 346.344 40.64 346.344 46.08C346.344 51.52 345.288 56.256 343.176 60.288C341.064 64.256 338.088 67.328 334.248 69.504C330.408 71.616 326.024 72.672 321.096 72.672C315.144 72.672 310.088 71.136 305.928 68.064C301.832 64.928 299.08 60.96 297.672 56.16V96.384H295.848V20.16H297.672V36ZM344.424 46.08C344.424 40.96 343.464 36.544 341.544 32.832C339.624 29.056 336.904 26.176 333.384 24.192C329.928 22.208 325.832 21.216 321.096 21.216C316.616 21.216 312.584 22.272 309 24.384C305.48 26.432 302.696 29.344 300.648 33.12C298.664 36.832 297.672 41.152 297.672 46.08C297.672 51.008 298.664 55.36 300.648 59.136C302.696 62.848 305.48 65.76 309 67.872C312.584 69.92 316.616 70.944 321.096 70.944C325.832 70.944 329.928 69.952 333.384 67.968C336.904 65.984 339.624 63.136 341.544 59.424C343.464 55.648 344.424 51.2 344.424 46.08ZM357.854 46.08C357.854 40.64 358.91 35.936 361.022 31.968C363.134 27.936 366.11 24.864 369.95 22.752C373.79 20.576 378.174 19.488 383.102 19.488C389.054 19.488 394.078 21.056 398.174 24.192C402.334 27.264 405.118 31.2 406.526 36V20.16H408.35V72H406.526V56.16C405.118 60.96 402.334 64.928 398.174 68.064C394.078 71.136 389.054 72.672 383.102 72.672C378.174 72.672 373.79 71.616 369.95 69.504C366.11 67.328 363.134 64.256 361.022 60.288C358.91 56.256 357.854 51.52 357.854 46.08ZM406.526 46.08C406.526 41.152 405.502 36.832 403.454 33.12C401.47 29.344 398.686 26.432 395.102 24.384C391.582 22.272 387.582 21.216 383.102 21.216C378.366 21.216 374.238 22.208 370.718 24.192C367.262 26.176 364.574 29.056 362.654 32.832C360.734 36.544 359.774 40.96 359.774 46.08C359.774 51.2 360.734 55.648 362.654 59.424C364.574 63.136 367.262 65.984 370.718 67.968C374.238 69.952 378.366 70.944 383.102 70.944C387.582 70.944 391.582 69.92 395.102 67.872C398.686 65.76 401.47 62.848 403.454 59.136C405.502 55.36 406.526 51.008 406.526 46.08ZM446.932 19.008C453.012 19.008 458.004 20.896 461.908 24.672C465.812 28.448 467.764 34.144 467.764 41.76V72H465.94V41.568C465.94 34.784 464.244 29.632 460.852 26.112C457.46 22.528 452.82 20.736 446.932 20.736C440.788 20.736 435.86 22.752 432.148 26.784C428.436 30.752 426.58 36.64 426.58 44.448V72H424.66V0.959999H426.58V33.792C427.796 28.992 430.228 25.344 433.876 22.848C437.524 20.288 441.876 19.008 446.932 19.008ZM51.4896 94.032V137.904C51.4896 146.032 49.3456 152.208 45.0576 156.432C40.8336 160.592 34.8816 162.672 27.2016 162.672C18.9456 162.672 12.3856 160.4 7.52163 155.856C2.65763 151.312 0.225625 144.688 0.225625 135.984H21.2496C21.2496 138.736 21.6976 140.688 22.5936 141.84C23.4896 142.928 24.7056 143.472 26.2416 143.472C27.5216 143.472 28.5136 143.056 29.2176 142.224C29.9216 141.392 30.2736 139.952 30.2736 137.904V94.032H51.4896ZM57.8106 134.928C57.8106 129.232 58.7706 124.304 60.6906 120.144C62.6746 115.92 65.3626 112.72 68.7546 110.544C72.1466 108.304 75.9546 107.184 80.1786 107.184C83.6986 107.184 86.7386 107.92 89.2986 109.392C91.8586 110.8 93.8106 112.752 95.1546 115.248V107.856H116.371V162H95.1546V154.608C93.8106 157.104 91.8586 159.088 89.2986 160.56C86.7386 161.968 83.6986 162.672 80.1786 162.672C75.9546 162.672 72.1466 161.584 68.7546 159.408C65.3626 157.168 62.6746 153.968 60.6906 149.808C58.7706 145.584 57.8106 140.624 57.8106 134.928ZM95.1546 134.928C95.1546 132.048 94.4186 129.808 92.9466 128.208C91.4746 126.608 89.5866 125.808 87.2826 125.808C84.9786 125.808 83.0906 126.608 81.6186 128.208C80.1466 129.808 79.4106 132.048 79.4106 134.928C79.4106 137.808 80.1466 140.048 81.6186 141.648C83.0906 143.248 84.9786 144.048 87.2826 144.048C89.5866 144.048 91.4746 143.248 92.9466 141.648C94.4186 140.048 95.1546 137.808 95.1546 134.928ZM123.061 134.928C123.061 129.232 124.021 124.304 125.941 120.144C127.925 115.92 130.613 112.72 134.005 110.544C137.397 108.304 141.205 107.184 145.429 107.184C148.949 107.184 151.957 107.92 154.453 109.392C157.013 110.8 158.965 112.752 160.309 115.248V90.96H181.621V162H160.309V154.608C158.965 157.104 157.013 159.088 154.453 160.56C151.957 161.968 148.949 162.672 145.429 162.672C141.205 162.672 137.397 161.584 134.005 159.408C130.613 157.168 127.925 153.968 125.941 149.808C124.021 145.584 123.061 140.624 123.061 134.928ZM160.405 134.928C160.405 132.048 159.669 129.808 158.197 128.208C156.725 126.608 154.837 125.808 152.533 125.808C150.229 125.808 148.341 126.608 146.869 128.208C145.397 129.808 144.661 132.048 144.661 134.928C144.661 137.808 145.397 140.048 146.869 141.648C148.341 143.248 150.229 144.048 152.533 144.048C154.837 144.048 156.725 143.248 158.197 141.648C159.669 140.048 160.405 137.808 160.405 134.928ZM201.943 103.536C198.231 103.536 195.255 102.544 193.015 100.56C190.775 98.576 189.655 96.08 189.655 93.072C189.655 90 190.775 87.472 193.015 85.488C195.255 83.44 198.231 82.416 201.943 82.416C205.591 82.416 208.535 83.44 210.775 85.488C213.015 87.472 214.135 90 214.135 93.072C214.135 96.08 213.015 98.576 210.775 100.56C208.535 102.544 205.591 103.536 201.943 103.536ZM212.503 107.856V162H191.191V107.856H212.503ZM259.273 94.032V132.336C259.273 135.472 259.945 137.968 261.289 139.824C262.697 141.616 264.937 142.512 268.009 142.512C271.081 142.512 273.353 141.616 274.825 139.824C276.297 137.968 277.033 135.472 277.033 132.336V94.032H298.249V132.336C298.249 138.8 296.905 144.336 294.217 148.944C291.529 153.488 287.849 156.912 283.177 159.216C278.505 161.52 273.289 162.672 267.529 162.672C261.769 162.672 256.649 161.52 252.169 159.216C247.753 156.912 244.297 153.488 241.801 148.944C239.305 144.4 238.057 138.864 238.057 132.336V94.032H259.273ZM304.561 134.928C304.561 129.232 305.521 124.304 307.441 120.144C309.425 115.92 312.113 112.72 315.505 110.544C318.897 108.304 322.705 107.184 326.929 107.184C330.449 107.184 333.489 107.92 336.049 109.392C338.609 110.8 340.561 112.752 341.905 115.248V107.856H363.121V162H341.905V154.608C340.561 157.104 338.609 159.088 336.049 160.56C333.489 161.968 330.449 162.672 326.929 162.672C322.705 162.672 318.897 161.584 315.505 159.408C312.113 157.168 309.425 153.968 307.441 149.808C305.521 145.584 304.561 140.624 304.561 134.928ZM341.905 134.928C341.905 132.048 341.169 129.808 339.697 128.208C338.225 126.608 336.337 125.808 334.033 125.808C331.729 125.808 329.841 126.608 328.369 128.208C326.897 129.808 326.161 132.048 326.161 134.928C326.161 137.808 326.897 140.048 328.369 141.648C329.841 143.248 331.729 144.048 334.033 144.048C336.337 144.048 338.225 143.248 339.697 141.648C341.169 140.048 341.905 137.808 341.905 134.928ZM410.611 107.472C416.819 107.472 421.651 109.552 425.107 113.712C428.627 117.872 430.387 123.504 430.387 130.608V162H409.171V133.296C409.171 130.736 408.467 128.72 407.059 127.248C405.715 125.712 403.891 124.944 401.587 124.944C399.219 124.944 397.363 125.712 396.019 127.248C394.675 128.72 394.003 130.736 394.003 133.296V162H372.691V107.856H394.003V116.112C395.667 113.552 397.875 111.472 400.627 109.872C403.443 108.272 406.771 107.472 410.611 107.472ZM459.116 107.184C462.636 107.184 465.676 107.92 468.236 109.392C470.796 110.8 472.748 112.752 474.092 115.248V107.856H495.308V161.04C495.308 166.096 494.38 170.704 492.524 174.864C490.668 179.024 487.66 182.352 483.5 184.848C479.404 187.344 474.124 188.592 467.66 188.592C458.956 188.592 452.044 186.544 446.924 182.448C441.868 178.416 438.988 172.912 438.284 165.936H459.212C459.788 168.752 462.092 170.16 466.124 170.16C468.62 170.16 470.572 169.52 471.98 168.24C473.388 166.96 474.092 164.56 474.092 161.04V154.608C472.748 157.104 470.796 159.088 468.236 160.56C465.676 161.968 462.636 162.672 459.116 162.672C454.892 162.672 451.084 161.584 447.692 159.408C444.3 157.168 441.612 153.968 439.628 149.808C437.708 145.584 436.748 140.624 436.748 134.928C436.748 129.232 437.708 124.304 439.628 120.144C441.612 115.92 444.3 112.72 447.692 110.544C451.084 108.304 454.892 107.184 459.116 107.184ZM474.092 134.928C474.092 132.048 473.356 129.808 471.884 128.208C470.412 126.608 468.524 125.808 466.22 125.808C463.916 125.808 462.028 126.608 460.556 128.208C459.084 129.808 458.348 132.048 458.348 134.928C458.348 137.808 459.084 140.048 460.556 141.648C462.028 143.248 463.916 144.048 466.22 144.048C468.524 144.048 470.412 143.248 471.884 141.648C473.356 140.048 474.092 137.808 474.092 134.928ZM526.19 87.792C533.294 87.792 538.99 89.584 543.278 93.168C547.63 96.688 549.806 101.872 549.806 108.72C549.806 114.352 547.886 118.896 544.046 122.352C540.27 125.808 535.31 127.6 529.166 127.728L528.59 134.544H509.774L509.198 114.192H517.262C521.038 114.192 523.918 113.776 525.902 112.944C527.95 112.112 528.974 110.768 528.974 108.912C528.974 107.696 528.654 106.768 528.014 106.128C527.438 105.424 526.638 105.072 525.614 105.072C524.334 105.072 523.374 105.488 522.734 106.32C522.158 107.088 521.87 108.112 521.87 109.392H501.806C501.614 105.424 502.382 101.808 504.11 98.544C505.902 95.28 508.654 92.688 512.366 90.768C516.078 88.784 520.686 87.792 526.19 87.792ZM519.47 162.768C515.758 162.768 512.782 161.776 510.542 159.792C508.302 157.808 507.182 155.312 507.182 152.304C507.182 149.232 508.302 146.704 510.542 144.72C512.782 142.672 515.758 141.648 519.47 141.648C523.118 141.648 526.062 142.672 528.302 144.72C530.542 146.704 531.662 149.232 531.662 152.304C531.662 155.312 530.542 157.808 528.302 159.792C526.062 161.776 523.118 162.768 519.47 162.768Z" fill="#4F4F4F"/>
</svg>
